<?xml version="1.0" standalone="no"?>
<!DOCTYPE svg PUBLIC "-//W3C//DTD SVG 20010904//EN"
 "http://www.w3.org/TR/2001/REC-SVG-20010904/DTD/svg10.dtd">
<svg version="1.0" xmlns="http://www.w3.org/2000/svg"
 width="225.000000pt" height="225.000000pt" viewBox="0 0 225.000000 225.000000"
 preserveAspectRatio="xMidYMid meet">
<metadata>
Created by potrace 1.11, written by Peter Selinger 2001-2013
</metadata>
<g transform="translate(0.000000,225.000000) scale(0.100000,-0.100000)"
fill="#000000" stroke="none">
<path d="M962 2140 c-264 -71 -414 -295 -467 -698 -17 -131 -20 -463 -5 -597
33 -280 110 -477 239 -606 105 -104 221 -149 388 -149 117 0 179 13 273 57
187 89 303 288 362 623 9 51 13 168 13 360 0 235 -3 302 -19 385 -62 335 -200
539 -417 615 -94 32 -268 37 -367 10z m202 -134 c132 -55 184 -352 173 -986
-9 -466 -41 -652 -132 -747 -36 -37 -47 -43 -83 -43 -32 0 -49 7 -76 30 -97
86 -136 332 -136 870 0 584 45 824 164 876 40 17 49 17 90 0z"/>
</g>
</svg>
